<svg xmlns="http://www.w3.org/2000/svg" width="25" height="25" viewBox="0 0 25 25"><g fill="none" fill-rule="evenodd" transform="translate(.02 .5)"><path fill="#323232" fill-rule="nonzero" d="M21 5.25C21.4142136 5.25 21.75 5.58578644 21.75 6 21.75 6.37969577 21.4678461 6.69349096 21.1017706 6.74315338L21 6.75 3 6.75C2.58578644 6.75 2.25 6.41421356 2.25 6 2.25 5.62030423 2.53215388 5.30650904 2.89822944 5.25684662L3 5.25 21 5.25ZM17 11.25C17.4142136 11.25 17.75 11.5857864 17.75 12 17.75 12.3796958 17.4678461 12.693491 17.1017706 12.7431534L17 12.75 3 12.75C2.58578644 12.75 2.25 12.4142136 2.25 12 2.25 11.6203042 2.53215388 11.306509 2.89822944 11.2568466L3 11.25 17 11.25ZM13 17.25C13.4142136 17.25 13.75 17.5857864 13.75 18 13.75 18.3796958 13.4678461 18.693491 13.1017706 18.7431534L13 18.75 3 18.75C2.58578644 18.75 2.25 18.4142136 2.25 18 2.25 17.6203042 2.53215388 17.306509 2.89822944 17.2568466L3 17.25 13 17.25Z"/><polygon points="0 0 24 0 24 24 0 24"/></g></svg>